<svg id="Filled_Icons" xmlns="http://www.w3.org/2000/svg" xmlns:xlink="http://www.w3.org/1999/xlink" width="46.235" height="46.235" viewBox="0 0 46.235 46.235">
  <defs>
    <linearGradient id="linear-gradient" x1="1" y1="1" x2="0" y2="0.15" gradientUnits="objectBoundingBox">
      <stop offset="0" stop-color="#fe9654"/>
      <stop offset="1" stop-color="#fd6c57"/>
    </linearGradient>
  </defs>
  <g id="Group_179" data-name="Group 179">
    <path id="Union_1" data-name="Union 1" d="M.963,46.235A.964.964,0,0,1,0,45.272V43.346a.963.963,0,0,1,.963-.963H45.272a.963.963,0,0,1,.963.963v1.926a.964.964,0,0,1-.963.963Zm3.793-5.792a.964.964,0,0,1-.963-.963l.06-1.914a.963.963,0,0,1,.963-.963h36.6a.963.963,0,0,1,.963.963l-.06,1.914a.964.964,0,0,1-.963.963Zm30.883-5.779a.964.964,0,0,1-.963-.963V20.215a.944.944,0,0,1,.963-.949h3.853a.944.944,0,0,1,.963.949V33.7a.964.964,0,0,1-.963.963Zm-9.632,0a.964.964,0,0,1-.963-.963V20.215a.944.944,0,0,1,.963-.949H29.86a.944.944,0,0,1,.963.949V33.7a.964.964,0,0,1-.963.963Zm-9.632,0a.964.964,0,0,1-.963-.963V20.215a.944.944,0,0,1,.963-.949h3.853a.944.944,0,0,1,.963.949V33.7a.964.964,0,0,1-.963.963Zm-9.632,0a.964.964,0,0,1-.963-.963V20.215a.944.944,0,0,1,.963-.949H10.6a.944.944,0,0,1,.963.949V33.7a.964.964,0,0,1-.963.963ZM2.89,17.339a.964.964,0,0,1-.963-.963V12.523a.962.962,0,0,1,.963-.963H43.345a.962.962,0,0,1,.963.963v3.853a.964.964,0,0,1-.963.963ZM43.345,9.62H2.89a.963.963,0,0,1-.382-1.848L22.736.077a.968.968,0,0,1,.759,0l20.133,7.65a.964.964,0,0,1-.263,1.892Z" fill="url(#linear-gradient)"/>
  </g>
</svg>
