<svg id="noun_Calendar_31040" xmlns="http://www.w3.org/2000/svg" width="24.754" height="24.754" viewBox="0 0 24.754 24.754">
  <path id="Path_103" data-name="Path 103" d="M4.641,3.868a.773.773,0,0,1-.774.774h0a.773.773,0,0,1-.774-.774V.774A.773.773,0,0,1,3.868,0h0a.773.773,0,0,1,.774.774ZM17.018.774A.773.773,0,0,0,16.245,0h0a.773.773,0,0,0-.774.774V3.868a.773.773,0,0,0,.774.774h0a.773.773,0,0,0,.774-.774Zm1.547,13.151a4.641,4.641,0,1,0,4.641,4.641,4.646,4.646,0,0,0-4.641-4.641m0-1.547a6.188,6.188,0,1,1-6.188,6.188,6.189,6.189,0,0,1,6.188-6.188ZM6.188,9.283H3.094v3.094H6.188Zm0,4.641H3.094v3.094H6.188ZM10.83,9.283H7.736v3.094H10.83Zm0,4.641H7.736v3.094H10.83Zm0,4.641H1.676a.146.146,0,0,1-.129-.154V7.736H18.565V10.83h1.547V4.8a1.688,1.688,0,0,0-1.676-1.7h-.645v.774a1.547,1.547,0,0,1-3.094,0V3.094H5.415v.774a1.547,1.547,0,0,1-3.094,0V3.094H1.676A1.689,1.689,0,0,0,0,4.8V18.411a1.69,1.69,0,0,0,1.676,1.7H10.83Zm4.641-9.283H12.377v3.094h3.094Zm5.415,8.509H19.339V16.245a.774.774,0,0,0-1.547,0v1.547H16.245a.774.774,0,0,0,0,1.547h1.547v1.547a.774.774,0,0,0,1.547,0V19.339h1.547a.774.774,0,0,0,0-1.547Z" fill="#fff"/>
</svg>
