<svg xmlns="http://www.w3.org/2000/svg" width="25.195" height="25.187" viewBox="0 0 25.195 25.187">
  <g id="noun_phone_call_243797" data-name="noun_phone call_243797" transform="translate(-8.147 -8.1)">
    <path id="Path_102" data-name="Path 102" d="M8.825,18.809a8.819,8.819,0,0,1-.662-3.73,2.987,2.987,0,0,1,.963-2.046c.632-.6,1.233-1.233,1.865-1.865a1.775,1.775,0,0,1,2.677,0l1.5,1.5c.481.481.993.963,1.474,1.474a1.778,1.778,0,0,1,0,2.738l-1.835,1.835a.375.375,0,0,0-.09.481,11.076,11.076,0,0,0,1.655,2.677,19.549,19.549,0,0,0,4.663,4.242c.391.241.812.421,1.2.632a.351.351,0,0,0,.511-.09c.6-.632,1.233-1.233,1.865-1.865a1.775,1.775,0,0,1,2.677,0c.993.993,2.016,1.985,3.008,2.978a1.766,1.766,0,0,1,0,2.707c-.572.572-1.173,1.113-1.715,1.715A3.359,3.359,0,0,1,25.7,33.279a11.143,11.143,0,0,1-4.6-1.324,25,25,0,0,1-8.243-6.438A23.176,23.176,0,0,1,8.825,18.809Zm24.517,1.8A12.524,12.524,0,0,0,20.828,8.1v2.377A10.181,10.181,0,0,1,30.965,20.614Zm-6.859,0H28.86a8.05,8.05,0,0,0-8.032-8.032v2.377a5.649,5.649,0,0,1,5.656,5.656Z" fill="#fff"/>
  </g>
</svg>
