<svg xmlns="http://www.w3.org/2000/svg" width="35.192" height="38.108" viewBox="0 0 35.192 38.108">
  <g id="noun_dye_2415211" transform="translate(-3.955 -1.582)">
    <path id="Path_2907" data-name="Path 2907" d="M46.5,2.474a1.871,1.871,0,0,0-1.142-.624,1.535,1.535,0,0,0-1.248.381A.568.568,0,0,0,44,2.375L35.346,10.44l-5.065-.349a.624.624,0,0,0-.468.162L28.26,11.7h0l-2.289,2.121a.622.622,0,1,0,.848.911l1.834-1.7,1.472,1.584-1.871,1.734a.622.622,0,0,0,.848.911l1.871-1.728L32.5,17.19l-2,1.871a.625.625,0,0,0,.848.917l2-1.871L34.6,19.473l-1.828,1.7a.633.633,0,0,0,.88.911l2.289-2.115h0l1.553-1.447a.624.624,0,0,0,.2-.449V13l8.671-8.028a.5.5,0,0,0,.168-.112,1.516,1.516,0,0,0,.474-1.2A1.915,1.915,0,0,0,46.5,2.474Zm-.749,1.385-.081.062-9,8.346a.624.624,0,0,0-.2.53v4.99l-.9.842-5.995-6.444.9-.836,5.046.356A.624.624,0,0,0,36,11.538l8.989-8.353.062-.069a.287.287,0,0,1,.143,0,.624.624,0,0,1,.381.212.624.624,0,0,1,.187.4.331.331,0,0,1-.019.131Z" transform="translate(-8.113 0)" fill="#fff" stroke="#fff" stroke-width="0.5"/>
    <path id="Path_2908" data-name="Path 2908" d="M36.3,42.322a2.757,2.757,0,0,0-.518-1.616l-1.753-2.72a.624.624,0,0,0-.53-.287h0a.624.624,0,0,0-.524.287l-1.7,2.707h0a2.745,2.745,0,0,0-.518,1.622,2.776,2.776,0,0,0,5.546,0Zm-4.3,0a1.51,1.51,0,0,1,.156-.692L33.511,39.5,34.7,41.368V41.4l.137.225a1.491,1.491,0,0,1,.181.717,1.528,1.528,0,0,1-3.05,0Z" transform="translate(-9.989 -13.493)" fill="#fff" stroke="#fff" stroke-width="0.5"/>
    <path id="Path_2909" data-name="Path 2909" d="M31.288,15.946a.624.624,0,0,0-.374.8,14.643,14.643,0,0,1,.867,7.829,11.228,11.228,0,0,1-2.264,4.2c-1.079,1.428-2.19,2.907-2.19,5.1v6.475H16.062V36.9a.624.624,0,0,0-.761-.624c-.037,0-3.568.761-5.452-.911-2.059-1.834-1.6-6.506-1.591-6.55a.624.624,0,0,0-.405-.624l-1.984-.749,3.743-4.367a.624.624,0,0,0,.125-.574,12.987,12.987,0,0,1-.324-4.367,12.906,12.906,0,0,0,5.028,1.248,1.248,1.248,0,0,1,.929.5,2.908,2.908,0,0,1,.2,2.37c-.661,2.838,1.385,3.393,2.738,3.743l.674.193a.493.493,0,0,0,.187,0,.623.623,0,0,0,.218-1.216l-.724-.212c-1.553-.418-2.227-.674-1.871-2.277a3.954,3.954,0,0,0-.418-3.4,2.5,2.5,0,0,0-1.871-.992c-3.743-.206-6.537-1.7-7.436-4a11.457,11.457,0,0,1-.293-4.784c1.759,1.085,6.113,2.913,13.455.811a10.442,10.442,0,0,1,6.406.175.625.625,0,1,0,.449-1.166,11.534,11.534,0,0,0-7.2-.206C10.94,11.467,6.748,7.768,6.7,7.731a.624.624,0,0,0-1.035.343c0,.168-.724,4.055.225,6.469A6.419,6.419,0,0,0,8.22,17.406a14.154,14.154,0,0,0,.225,5.1l-4.086,4.8a.618.618,0,0,0,.256.986l2.377.892c-.075,1.372-.075,5.246,2.046,7.13,1.772,1.572,4.479,1.478,5.789,1.316v3.337a.624.624,0,0,0,.624.624h12.5a.624.624,0,0,0,.624-.624V33.855c0-1.778.9-2.969,1.94-4.367a12.4,12.4,0,0,0,2.5-4.66c.792-3.25-.368-7.055-.9-8.54a.624.624,0,0,0-.817-.343Z" transform="translate(0 -2.156)" fill="#fff" stroke="#fff" stroke-width="0.5"/>
  </g>
</svg>
