<svg xmlns="http://www.w3.org/2000/svg" width="47.996" height="35.983" viewBox="0 0 47.996 35.983">
  <g id="Filled_Icon" transform="translate(-1)">
    <g id="Group_176" data-name="Group 176">
      <path id="Path_103" data-name="Path 103" d="M19.115,10.507h-.032c.032,0-1.814,4-1.814,4h2.19C19.329,13.091,19.115,10.507,19.115,10.507Z" transform="translate(17.266 4.492)" fill="#4392f9"/>
      <path id="Path_104" data-name="Path 104" d="M43,3.007H5a5,5,0,0,0-5,5V34A4.984,4.984,0,0,0,5,38.99H43A4.986,4.986,0,0,0,48,34v-26A5.005,5.005,0,0,0,43,3.007ZM26.618,21.7c-1.08-.584-2.1-1.364-2.1-2.682,0-2.04,1.784-3.286,3.988-3.286a4.782,4.782,0,0,1,2.386.51l-.676,1.8a4.037,4.037,0,0,0-1.89-.45c-1,0-1.53.508-1.53,1.066,0,.584.616.944,1.47,1.424a3.066,3.066,0,0,1,2.01,2.67c0,2.25-1.862,3.406-4.112,3.406a5.086,5.086,0,0,1-2.894-.72l.72-1.77a4.748,4.748,0,0,0,2.384.646c.84,0,1.606-.39,1.606-1.186C27.982,22.555,27.546,22.179,26.618,21.7Zm-5.056,4.306H19.4l1.92-10h2.16Zm-6.6,0H12.457l-1.012-8H9.827a1,1,0,0,1,0-2h3.606c.556,5.982.57,6,.692,8h.03c.75-2,1.682-3.868,3.616-8h2.414Zm22.064,0-.21-3H33.909l-1.2,3h-2.3l4.92-10h2.776l1.186,10Z" transform="translate(1 -3.007)" fill="#4392f9"/>
    </g>
  </g>
</svg>
