<svg xmlns="http://www.w3.org/2000/svg" width="28.768" height="30.171" viewBox="0 0 28.768 30.171">
  <g id="noun_Map_2443283" transform="translate(-9 -6.974)">
    <g id="Group_471" data-name="Group 471" transform="translate(9 6.974)">
      <path id="Path_342" data-name="Path 342" d="M29.874,959.336a7.9,7.9,0,0,0-7.828,6.887L18.077,965a.964.964,0,0,0-.614,0l-7.718,2.391A1.053,1.053,0,0,0,9,968.395v7.435a1.053,1.053,0,1,0,2.105,0v-6.668l5.613-1.733v17.865L11.1,987.038v-7.7a1.053,1.053,0,1,0-2.105,0v9.124a1.053,1.053,0,0,0,1.359,1l7.411-2.292,7.411,2.292a1.053,1.053,0,0,0,.614,0l7.718-2.391a1.053,1.053,0,0,0,.745-1V974.547c.28-.338.557-.681.822-1.031a11.027,11.027,0,0,0,2.686-6.284q0-.011,0-.022A7.9,7.9,0,0,0,29.874,959.336Zm0,2.106a5.761,5.761,0,0,1,5.789,5.757s0,.007,0,.011a9.345,9.345,0,0,1-2.258,5.034c-1.077,1.419-2.353,2.8-3.53,4.112-1.178-1.318-2.465-2.692-3.541-4.112a9.338,9.338,0,0,1-2.247-5.034s0-.007,0-.011A5.76,5.76,0,0,1,29.874,961.442Zm0,1.755a4.036,4.036,0,1,0,4.034,4.036A4.051,4.051,0,0,0,29.874,963.2Zm0,2.106a1.93,1.93,0,1,1-1.93,1.93A1.914,1.914,0,0,1,29.874,965.3ZM18.823,967.43l3.289,1.009a12.053,12.053,0,0,0,2.324,4.781v13.807l-5.613-1.733Zm7.718,8.356c.9,1.016,1.795,1.968,2.533,2.829a1.052,1.052,0,0,0,1.59,0c.448-.523.962-1.084,1.491-1.667v8.346l-5.613,1.733Z" transform="translate(-9 -959.336)" fill="#e4b343"/>
    </g>
  </g>
</svg>
