<svg xmlns="http://www.w3.org/2000/svg" width="38.5" height="38.5" viewBox="0 0 38.5 38.5">
  <g id="ic_end_call" transform="translate(-189.346 792.983) rotate(-135)">
    <g id="baseline-call_end-24px" transform="translate(386 681)">
      <path id="Path_35" data-name="Path 35" d="M0,0H27.224V27.224H0Z" fill="none"/>
      <path id="Path_36" data-name="Path 36" d="M13.612,9.269a16.914,16.914,0,0,0-5.218.817V13.6a1.143,1.143,0,0,1-.635,1.021,13.057,13.057,0,0,0-3.017,2.1,1.114,1.114,0,0,1-.794.318,1.131,1.131,0,0,1-.805-.329L.329,13.9A1.085,1.085,0,0,1,0,13.1,1.131,1.131,0,0,1,.329,12.3a19.3,19.3,0,0,1,26.566,0,1.15,1.15,0,0,1,0,1.611l-2.813,2.813a1.131,1.131,0,0,1-.805.329,1.164,1.164,0,0,1-.794-.318,12.784,12.784,0,0,0-3.029-2.1,1.13,1.13,0,0,1-.635-1.021V10.1A16.465,16.465,0,0,0,13.612,9.269Z" transform="translate(0 0.94)" fill="#e4b343"/>
    </g>
  </g>
</svg>
