<svg xmlns="http://www.w3.org/2000/svg" width="35.451" height="23.151" viewBox="0 0 35.451 23.151">
  <g id="noun_eye_makeup_1614962" data-name="noun_eye makeup_1614962" transform="translate(0.185 -10.562)">
    <circle id="Ellipse_347" data-name="Ellipse 347" cx="7.42" cy="7.42" r="7.42" transform="translate(7.632 17.873)" fill="none" stroke="#fff" stroke-linecap="round" stroke-linejoin="round" stroke-width="2"/>
    <circle id="Ellipse_348" data-name="Ellipse 348" cx="2.473" cy="2.473" r="2.473" transform="translate(12.579 22.82)" fill="none" stroke="#fff" stroke-linecap="round" stroke-linejoin="round" stroke-width="2"/>
    <path id="Path_3044" data-name="Path 3044" d="M28.5,28.616a1.847,1.847,0,0,1,0,2.737C26.132,33.5,21,37.4,15.053,37.4S3.974,33.5,1.607,31.353a1.847,1.847,0,0,1,0-2.737c2.367-2.144,7.5-6.052,13.446-6.052S26.132,26.473,28.5,28.616Z" transform="translate(0 -4.692)" fill="none" stroke="#fff" stroke-linecap="round" stroke-linejoin="round" stroke-width="2"/>
    <path id="Path_3045" data-name="Path 3045" d="M1,24.756c1.9-8.978,12.048-11.938,20.012-9.9,2.628.673,5.547,2.632,7.981.359a4.213,4.213,0,0,0,1.266-3.653c1.942,1.243,3.828,3.259,3.994,5.679.225,3.284-2.7,5.84-5.148,7.515" transform="translate(0)" fill="none" stroke="#fff" stroke-linecap="round" stroke-linejoin="round" stroke-width="2"/>
    <path id="Path_3046" data-name="Path 3046" d="M28,18.727s6.309,0,4.015-5.162" transform="translate(-11.513 -0.854)" fill="none" stroke="#fff" stroke-linecap="round" stroke-linejoin="round" stroke-width="2"/>
    <path id="Path_3047" data-name="Path 3047" d="M36,20.727s5.736,1.147,3.441-5.162" transform="translate(-14.925 -1.707)" fill="none" stroke="#fff" stroke-linecap="round" stroke-linejoin="round" stroke-width="2"/>
    <path id="Path_3048" data-name="Path 3048" d="M45,23.594s5.162-1.147,1.721-8.03" transform="translate(-18.763 -1.707)" fill="none" stroke="#fff" stroke-linecap="round" stroke-linejoin="round" stroke-width="2"/>
  </g>
</svg>
