<svg xmlns="http://www.w3.org/2000/svg" width="41.266" height="28.137" viewBox="0 0 41.266 28.137">
  <g id="noun_Dryer_1830788" transform="translate(-2.5 -17.67)">
    <g id="Group_4581" data-name="Group 4581" transform="translate(2.5 17.67)">
      <path id="Path_2913" data-name="Path 2913" d="M86.616,44.094h0a5,5,0,0,1-1.432.3,4.836,4.836,0,0,1-1.389-.391c-.26-.087-.521-.217-.825-.347a3.978,3.978,0,0,0-1.085-.26,3.236,3.236,0,0,0-1.128.174,2.655,2.655,0,0,0-.521.217,1.661,1.661,0,0,0-.477.347.558.558,0,0,0-.174.521.473.473,0,0,0,.608.391l.217-.043a2.766,2.766,0,0,1,.3-.087.956.956,0,0,1,.347-.043,3.263,3.263,0,0,1,.651,0,1.711,1.711,0,0,1,.608.217l.825.391a6.146,6.146,0,0,0,.955.3,3.292,3.292,0,0,0,2.995-.738.537.537,0,0,0,.174-.608A.5.5,0,0,0,86.616,44.094Z" transform="translate(-46.123 -32.233)" fill="#fff"/>
      <path id="Path_2914" data-name="Path 2914" d="M86.616,35.694h0a5,5,0,0,1-1.432.3,4.836,4.836,0,0,1-1.389-.391c-.26-.087-.521-.217-.825-.347A3.978,3.978,0,0,0,81.886,35a3.236,3.236,0,0,0-1.128.174,2.655,2.655,0,0,0-.521.217,1.661,1.661,0,0,0-.477.347.558.558,0,0,0-.174.521.473.473,0,0,0,.608.391l.217-.043a2.766,2.766,0,0,1,.3-.087.956.956,0,0,1,.347-.043,3.263,3.263,0,0,1,.651,0,1.711,1.711,0,0,1,.608.217l.825.391a6.194,6.194,0,0,0,.955.347,3.292,3.292,0,0,0,2.995-.738.537.537,0,0,0,.174-.608A.455.455,0,0,0,86.616,35.694Z" transform="translate(-46.123 -27.479)" fill="#fff"/>
      <path id="Path_2915" data-name="Path 2915" d="M80.336,28.149l.217-.043a2.767,2.767,0,0,1,.3-.087.956.956,0,0,1,.347-.043,3.263,3.263,0,0,1,.651,0,1.711,1.711,0,0,1,.608.217l.825.391a6.194,6.194,0,0,0,.955.347,3.292,3.292,0,0,0,2.995-.738.537.537,0,0,0,.174-.608.55.55,0,0,0-.694-.347h-.043a3.524,3.524,0,0,1-1.389.26,4.836,4.836,0,0,1-1.389-.391c-.26-.087-.521-.217-.825-.347a3.978,3.978,0,0,0-1.085-.26,3.236,3.236,0,0,0-1.128.174,2.655,2.655,0,0,0-.521.217,1.661,1.661,0,0,0-.477.347.558.558,0,0,0-.174.521A.586.586,0,0,0,80.336,28.149Z" transform="translate(-46.179 -22.668)" fill="#fff"/>
      <path id="Path_2916" data-name="Path 2916" d="M32.013,20.027l-3.168,1.519L13.22,17.9A8.765,8.765,0,0,0,2.5,26.45a8.789,8.789,0,0,0,3.3,6.857A8.632,8.632,0,0,0,8.88,34.87l2.6,9.418a2.084,2.084,0,0,0,2,1.519h3.342a2.056,2.056,0,0,0,1.649-.825,2.092,2.092,0,0,0,.347-1.823l-2.474-8.9,12.5-2.908,3.168,1.519a1.7,1.7,0,0,0,.608.13,1.769,1.769,0,0,0,.781-.217,1.438,1.438,0,0,0,.694-1.215V21.329a1.385,1.385,0,0,0-.694-1.215A1.339,1.339,0,0,0,32.013,20.027Zm-27.56,6.38a6.661,6.661,0,0,1,2.561-5.3,6.811,6.811,0,0,1,4.21-1.476,6.39,6.39,0,0,1,1.562.174L28.02,23.325v6.163L12.786,33a6.626,6.626,0,0,1-5.729-1.3A6.7,6.7,0,0,1,4.453,26.407Zm12.5,17.317a.134.134,0,0,1-.087.043l-3.429-.087-2.387-8.55h.217a10.41,10.41,0,0,0,2-.217l1.215-.3ZM32.1,30.66l-2.17-1.042V23.152L32.1,22.11Z" transform="translate(-2.5 -17.67)" fill="#fff"/>
      <path id="Path_2917" data-name="Path 2917" d="M21.625,32.763a3.863,3.863,0,1,0-3.863,3.863A3.871,3.871,0,0,0,21.625,32.763Zm-5.772,0a1.91,1.91,0,1,1,1.91,1.91A1.927,1.927,0,0,1,15.853,32.763Z" transform="translate(-8.952 -24.026)" fill="#fff"/>
    </g>
  </g>
</svg>
