<svg xmlns="http://www.w3.org/2000/svg" width="39.429" height="38.38" viewBox="0 0 39.429 38.38">
  <g id="noun_Barber_2383586" transform="translate(-0.992 -1.631)">
    <g id="Group_466" data-name="Group 466" transform="translate(0.992 1.631)">
      <path id="Path_327" data-name="Path 327" d="M31.441,19.922,34.7,23.407a1.632,1.632,0,0,0,1.191.516H41.5a1.632,1.632,0,0,0,0-3.263H36.6l-2.78-2.968a1.632,1.632,0,0,0-2.382,2.231Z" transform="translate(-6.359 -4.411)" fill="#fff"/>
      <path id="Path_328" data-name="Path 328" d="M44.853,35.964l-1.938-9.229a1.631,1.631,0,0,0-1.6-1.3H35.754l-.2-.559H35a2.47,2.47,0,0,1-1.787-.775l-3.263-3.484a2.441,2.441,0,0,1-.449-2.668l-1.46.53a1.49,1.49,0,0,0-.906,1.909l2.986,8.248a1.485,1.485,0,0,0,1.917.9l2.319-.836h5.64l.472,2.248H30.207l-3.092-6.486a19.466,19.466,0,0,0-.245,3.051,9.644,9.644,0,0,1-.155,1.787L28.331,32.7a1.237,1.237,0,0,0,1.11.7h2.195v5.45H27.343a1.379,1.379,0,0,0,0,2.758H41.776a1.379,1.379,0,0,0,0-2.758H37.492V33.4H40.98l.68,3.238a1.632,1.632,0,1,0,3.193-.671Z" transform="translate(-5.46 -4.55)" fill="#fff"/>
      <path id="Path_329" data-name="Path 329" d="M20.283,12.778l.489-5.719c-.612-.383-1.346.889-1.346.889l-.408,4.887a2.629,2.629,0,0,1,.759-.114A2.09,2.09,0,0,1,20.283,12.778Z" transform="translate(-4.216 -2.589)" fill="#fff"/>
      <path id="Path_330" data-name="Path 330" d="M23.666,8.009l-3.019,4.968a2.465,2.465,0,0,1,1.093.587L24,9.738C24.71,8.286,23.666,8.009,23.666,8.009Z" transform="translate(-4.507 -2.772)" fill="#fff"/>
      <path id="Path_331" data-name="Path 331" d="M10.216,12.827l2.578,2.831c.1-1.206.4-2.587-.963-2.709Z" transform="translate(-2.642 -3.633)" fill="#fff"/>
      <path id="Path_332" data-name="Path 332" d="M10.5,23.87l.2-2.541C9.427,21.265,9.347,20.876,4.9,16a2.465,2.465,0,0,1,.163-3.459c.024-.016.041-.041.065-.049l-.808-.065a1.164,1.164,0,0,0-1.256,1.077L2.211,24.519a1.178,1.178,0,0,0,.366.941l.99,6.46-2.486,7.9a1.631,1.631,0,0,0,3.112.98c2.687-8.535,2.751-8.392,2.657-9l-.891-5.808,1.712.134,1.534,6.659-2.3,6.96A1.631,1.631,0,1,0,10,40.77l2.448-7.394a1.631,1.631,0,0,0,.041-.879Z" transform="translate(-0.992 -3.561)" fill="#fff"/>
      <path id="Path_333" data-name="Path 333" d="M16.74,14.734l-4.615,2.225-3.31-3.638a1.632,1.632,0,0,0-2.414,2.2c4.213,4.629,4.634,5.588,6.045,4.91l5.711-2.753a1.632,1.632,0,1,0-1.417-2.94Z" transform="translate(-1.883 -3.626)" fill="#fff"/>
      <circle id="Ellipse_19" data-name="Ellipse 19" cx="3.671" cy="3.671" r="3.671" transform="translate(3.43)" fill="#fff"/>
      <circle id="Ellipse_20" data-name="Ellipse 20" cx="2.724" cy="2.724" r="2.724" transform="translate(20.147 7.105)" fill="#fff"/>
    </g>
  </g>
</svg>
