<svg xmlns="http://www.w3.org/2000/svg" width="14" height="14" viewBox="0 0 14 14">
  <g id="ic_direction" transform="translate(-5 -5)">
    <g id="Group_434" data-name="Group 434" transform="translate(5 5)">
      <path id="Path_315" data-name="Path 315" d="M13.522,19h-.037a.657.657,0,0,1-.6-.494l-1.5-5.889-5.889-1.5a.657.657,0,0,1-.071-1.251L18.109,5.043a.657.657,0,0,1,.848.848L14.136,18.576A.656.656,0,0,1,13.522,19ZM7.832,10.354l4.254,1.085a.657.657,0,0,1,.474.474l1.085,4.254,3.563-9.377Z" transform="translate(-5 -5)" fill="#cca76a"/>
    </g>
  </g>
</svg>
