<svg xmlns="http://www.w3.org/2000/svg" width="25.19" height="25.187" viewBox="0 0 25.19 25.187">
  <g id="noun_makeup_2139449" transform="translate(-5 -5)">
    <path id="Path_3007" data-name="Path 3007" d="M78.307,9.829a7.709,7.709,0,0,0-1.992-4.61.565.565,0,0,0-.894,0,7.709,7.709,0,0,0-1.992,4.61v1.617h4.877Z" transform="translate(-49.28 0)" fill="#fff"/>
    <path id="Path_3008" data-name="Path 3008" d="M76.08,66.592H69.675a.438.438,0,0,0-.4.471v6.471a.938.938,0,0,0,.846,1.009h5.5a.938.938,0,0,0,.846-1.009V67.063A.438.438,0,0,0,76.08,66.592Zm-4.359,6.266a.342.342,0,0,1-.308.367H71.09a.342.342,0,0,1-.308-.367V68.275a.342.342,0,0,1,.308-.367h.323a.342.342,0,0,1,.308.367Z" transform="translate(-46.289 -44.355)" fill="#fff"/>
    <path id="Path_3009" data-name="Path 3009" d="M77.735,31.568a.279.279,0,0,0-.252-.3h-5.1a.279.279,0,0,0-.252.3v8.426h5.6Zm-3.428,6.809a.327.327,0,0,1-.295.351h-.35a.327.327,0,0,1-.295-.351V32.884a.327.327,0,0,1,.295-.351h.35a.327.327,0,0,1,.295.351Z" transform="translate(-48.346 -18.916)" fill="#fff"/>
    <path id="Path_3010" data-name="Path 3010" d="M13.093,64H9.186a.547.547,0,0,0-.547.565l.23,7.144a1,1,0,0,0,1,.967h2.543a1,1,0,0,0,1-.967l.23-7.144A.547.547,0,0,0,13.093,64Z" transform="translate(-2.621 -42.489)" fill="#fff"/>
    <path id="Path_3011" data-name="Path 3011" d="M11.618,10.527H9.924C9.908,10,9.878,9.5,9.836,9.023h1.512a.42.42,0,1,0,0-.84h-1.6a14.205,14.205,0,0,0-.268-1.5h1.477a.42.42,0,1,0,0-.84H9.222c-.207-.533-.447-.84-.7-.84s-.5.306-.7.84H6.084a.42.42,0,1,0,0,.84H7.561a14.2,14.2,0,0,0-.268,1.5H5.69a.42.42,0,1,0,0,.84H7.2c-.042.476-.072.98-.087,1.5H5.42a.42.42,0,1,0,0,.84H7.1v.012c0,.514.014,1.014.039,1.493H5.69a.42.42,0,1,0,0,.84H7.2c.047.541.11,1.047.187,1.5h-1.3a.42.42,0,1,0,0,.84H7.556a6.4,6.4,0,0,0,.3.958v3.38H9.184v-3.38a6.4,6.4,0,0,0,.3-.958h1.471a.42.42,0,0,0,0-.84h-1.3c.077-.457.14-.963.187-1.5h1.51a.42.42,0,1,0,0-.84H9.9c.026-.479.039-.978.039-1.493v-.012h1.682a.42.42,0,0,0,0-.84Z" fill="#fff"/>
    <path id="Path_3012" data-name="Path 3012" d="M45.692,59H41.4a.362.362,0,0,0-.362.372l.243,8.732a1,1,0,0,0,1,.971h2.535a1,1,0,0,0,1-.971l.243-8.732A.362.362,0,0,0,45.692,59Z" transform="translate(-25.952 -38.888)" fill="#fff"/>
    <path id="Path_3013" data-name="Path 3013" d="M45.842,18.993h1.115V8.139L47.8,5H45l.842,3.139Z" transform="translate(-28.806)" fill="#fff"/>
  </g>
</svg>
