<svg id="Flat" height="512" viewBox="0 0 512 512" width="512" xmlns="http://www.w3.org/2000/svg"><path d="m409.1 468.69-33.1 10.36-28.6 8.95h-150.21l-29.19-93.26-96-306.74 96-30.05 102.5-32.08 105.5 337.07z" fill="#379a6b"/><path d="m338.929 431.973 7.168 22.904-91.617 28.675-7.169-22.905-22.904 7.169-105.141-335.931 22.904-7.168-7.168-22.905 91.617-28.674 7.169 22.904 22.904-7.169 105.141 335.931z" fill="#44c086"/><path d="m168 24h208v464h-208z" fill="#3ba673"/><path d="m320 432v24h-96v-24h-24v-352h24v-24h96v24h24v352z" fill="#44c086"/><circle cx="272" cy="256" fill="#3ba673" r="40"/><path d="m440 296v192h-56a80 80 0 0 1 -80-80h.16l-51.9-76.805a32 32 0 0 1 8.6-44.43 32 32 0 0 1 44.43 8.6l46.71 64.635h24v-192l60.235 112.941a32 32 0 0 1 3.765 15.059z" fill="#f5cbaa"/></svg>