<svg xmlns="http://www.w3.org/2000/svg" width="28" height="28" viewBox="0 0 28 28">
  <g id="Group_125" data-name="Group 125" transform="translate(-50)">
    <g id="Rectangle_38" data-name="Rectangle 38" transform="translate(50)" fill="#fff" stroke="#fff" stroke-width="1">
      <rect width="24" height="24" rx="3" stroke="none"/>
      <rect x="0.5" y="0.5" width="23" height="23" rx="2.5" fill="none"/>
    </g>
    <g id="Path_68" data-name="Path 68" transform="translate(54 4)" fill="#fff">
      <path d="M 21 23.5 L 3 23.5 C 1.792718768119812 23.5 0.7825390696525574 22.63968849182129 0.5502275228500366 21.5 L 16.49760818481445 21.5 C 16.55129432678223 21.50058937072754 16.60487937927246 21.50089073181152 16.65732002258301 21.50089073181152 C 21.41688919067383 21.50107002258301 21.49880981445313 19.06003952026367 21.49996948242188 18.95612907409668 L 21.5 18.95334053039551 L 21.5 18.95055961608887 L 21.5 0.5502275228500366 C 22.63968849182129 0.7825390696525574 23.5 1.792718768119812 23.5 3 L 23.5 21 C 23.5 22.37849998474121 22.37849998474121 23.5 21 23.5 Z" stroke="none"/>
      <path d="M 21 23 C 22.1028003692627 23 23 22.1028003692627 23 21 L 23 3 C 23 2.261210203170776 22.59738349914551 1.614717602729797 22 1.268407225608826 L 22 18.95055961608887 L 22 18.95612907409668 L 21.99994087219238 18.96170043945313 C 21.99818992614746 19.11844062805176 21.94820022583008 19.93911933898926 21.13327026367188 20.70463943481445 C 20.21760559082031 21.56479835510254 18.71198272705078 22.00089073181152 16.65790557861328 22.00089073181152 C 16.65777969360352 22.00089073181152 16.6574649810791 22.00089073181152 16.65733909606934 22.00089073181152 C 16.60395050048828 22.00089073181152 16.5494213104248 22.00058937072754 16.49477005004883 22 L 1.268407225608826 22 C 1.614717602729797 22.59738349914551 2.261210203170776 23 3 23 L 21 23 M 21 24 L 3 24 C 1.343150019645691 24 -1.77635683940025e-15 22.6568603515625 -1.77635683940025e-15 21 L 16.50049018859863 21 C 16.5532112121582 21.00059127807617 16.60584259033203 21.00088500976563 16.65733528137207 21.00088691711426 C 20.97715759277344 21.00105476379395 21 18.95055961608887 21 18.95055961608887 L 21 -1.77635683940025e-15 C 22.6568603515625 -1.77635683940025e-15 24 1.343150019645691 24 3 L 24 21 C 24 22.6568603515625 22.6568603515625 24 21 24 Z" stroke="none" fill="#fff"/>
    </g>
  </g>
</svg>
