<svg height="512" viewBox="0 0 192 192" width="512" xmlns="http://www.w3.org/2000/svg"><path d="m96 0a32.036 32.036 0 0 0 -32 32v56a24.027 24.027 0 0 0 24 24h16a24.027 24.027 0 0 0 24-24v-56a32.036 32.036 0 0 0 -32-32z"/><path d="m136 40.867v47.133a32.036 32.036 0 0 1 -32 32h-16a32.036 32.036 0 0 1 -32-32v-46.874a57.24 57.24 0 0 0 -16 39.724v111.15h112v-112a55.8 55.8 0 0 0 -16-39.133zm-16 135.133h-48v-8h48zm0-16h-48v-8h48z"/><path d="m36 48a12.013 12.013 0 0 1 -12-12 4 4 0 0 0 -8 0 12.013 12.013 0 0 1 -12 12 4 4 0 0 0 0 8 12.013 12.013 0 0 1 12 12 4 4 0 0 0 8 0 12.013 12.013 0 0 1 12-12 4 4 0 0 0 0-8z"/><path d="m183 16a12.013 12.013 0 0 1 -12-12 4 4 0 0 0 -8 0 12.013 12.013 0 0 1 -12 12 4 4 0 0 0 0 8 12.013 12.013 0 0 1 12 12 4 4 0 0 0 8 0 12.013 12.013 0 0 1 12-12 4 4 0 0 0 0-8z"/></svg>