<svg xmlns="http://www.w3.org/2000/svg" width="38.437" height="45" viewBox="0 0 38.437 45">
  <g id="Group_527" data-name="Group 527" transform="translate(-39 -493)">
    <g id="paypal-black" transform="translate(39 493)">
      <g id="Black">
        <path id="Paypal" d="M836.73,663.393c-2.1-2.375-5.9-3.393-10.755-3.393h-14.1a2.015,2.015,0,0,0-1.994,1.689l-5.87,36.93a1.2,1.2,0,0,0,1.2,1.388h8.7l2.186-13.753-.068.43A2.009,2.009,0,0,1,818.019,685h4.135c8.125,0,14.485-3.274,16.344-12.743.055-.281.144-.82.144-.82C839.169,667.928,838.638,665.55,836.73,663.393Z" transform="translate(-804 -660)" fill="#003087" fill-rule="evenodd"/>
      </g>
    </g>
    <path id="Paypal-2" data-name="Paypal" d="M841.425,673.883c-2.021,9.323-8.465,14.258-18.691,14.258h-3.708l-2.766,17.516h6.014a1.762,1.762,0,0,0,1.744-1.478l.071-.371,1.383-8.693.089-.48a1.76,1.76,0,0,1,1.742-1.478h1.1c7.106,0,12.671-2.864,14.3-11.147C843.351,678.686,843.038,675.9,841.425,673.883Z" transform="translate(-765.58 -167.657)" fill="#3aa3e7" fill-rule="evenodd"/>
  </g>
</svg>
