<svg id="Group_465" data-name="Group 465" xmlns="http://www.w3.org/2000/svg" width="38.871" height="30.564" viewBox="0 0 38.871 30.564">
  <path id="Path_325" data-name="Path 325" d="M51.871,26.934v-.209L49,21.5H16.6L13,26.672v.261a3.217,3.217,0,0,0,2.4,3.03V46.839H13.366v5.225h38.14V46.839H49.363V30.016A3.234,3.234,0,0,0,51.871,26.934ZM21.359,46.839V34.3h6.792V46.839ZM19.792,32.733V46.578H16.971V30.068a3.408,3.408,0,0,0,2.09-1.1,3.543,3.543,0,0,0,5.225,0,3.543,3.543,0,0,0,5.225,0,3.543,3.543,0,0,0,5.225,0,3.582,3.582,0,0,0,2.612,1.149,4.406,4.406,0,0,0,3.03-1.254,3.624,3.624,0,0,0,2.717,1.254,3.7,3.7,0,0,0,2.665-1.149,3.569,3.569,0,0,0,1.933,1.1v16.51H29.719V32.733Zm2.038-9.666H24.7l-1.2,3.762v.1a1.749,1.749,0,0,1-1.829,1.62,1.774,1.774,0,0,1-1.829-1.463L21.83,23.12Zm7.419,0-.47,3.762v.1a1.851,1.851,0,0,1-3.657.1l1.306-3.971Zm4.336,0L34,26.986a1.85,1.85,0,0,1-3.657,0l.47-3.918Zm9.509,0,1.933,4.023a1.874,1.874,0,0,1-3.657,0v-.313l-1.411-3.709Zm-4.807,0L39.8,26.986v.1a2.529,2.529,0,0,1-2.351,1.463,1.749,1.749,0,0,1-1.829-1.62v-.157L35.2,23.067ZM50.3,27.143a1.78,1.78,0,0,1-1.829,1.411,1.749,1.749,0,0,1-1.829-1.62.671.671,0,0,0-.209-.522l-1.62-3.4h3.239Zm-35.736,0,2.821-4.075h2.665l-1.829,3.709v.209a1.749,1.749,0,0,1-1.829,1.62A1.919,1.919,0,0,1,14.567,27.143ZM49.886,50.5h-35v-2.09h35Z" transform="translate(-13 -21.5)" fill="#fff"/>
  <path id="Path_326" data-name="Path 326" d="M53.612,54.982a2.565,2.565,0,0,0,1.829-.784.051.051,0,0,1,.052-.052A2.491,2.491,0,0,0,56.12,53l.888-1.672L57.9,53a2.491,2.491,0,0,0,.627,1.149.051.051,0,0,0,.052.052,2.661,2.661,0,0,0,1.829.784A2.612,2.612,0,1,0,58.419,50.7L57.9,49.7l2.4-4.545a.771.771,0,0,0-1.358-.731l-1.933,3.6-1.933-3.6a.771.771,0,0,0-1.358.731l2.4,4.545L55.6,50.7a2.605,2.605,0,1,0-1.985,4.284Zm5.747-2.612A1.045,1.045,0,1,1,60.4,53.414a1.1,1.1,0,0,1-.679-.261l-.366-.679Zm-5.747-1.045a1.048,1.048,0,0,1,1.045,1.045v.1l-.366.679a1.1,1.1,0,0,1-.679.261,1.045,1.045,0,0,1,0-2.09Z" transform="translate(-31.146 -32.255)" fill="#fff"/>
</svg>
