<svg id="noun_barbershop_79139_1_" data-name="noun_barbershop_79139 (1)" xmlns="http://www.w3.org/2000/svg" width="28.168" height="38.173" viewBox="0 0 28.168 38.173">
  <g id="Group_476" data-name="Group 476" transform="translate(0)">
    <path id="Path_347" data-name="Path 347" d="M67.655,5.033V5H61.068V6.565h6.26V8.13h-6.26V9.694h6.26v1.565h-6.26v1.565h6.26v1.565h-6.26v1.565h6.26v1.565h-6.26v1.565h6.26v1.565h-6.26v1.565h6.26v1.565h-6.26v1.565h6.26V37.863a1.565,1.565,0,0,0,3.13,0V8.13a3.119,3.119,0,0,0-2.8-3.1" transform="translate(-42.289 -5)" fill="#fff"/>
    <path id="Path_348" data-name="Path 348" d="M25.792,22.214A1.957,1.957,0,0,1,27.357,20.3V5H26.183l-3.13,21.908v3.4a4.693,4.693,0,1,0,3.121,4.609l.009.008v-8.02h1.174V24.131a1.957,1.957,0,0,1-1.565-1.917m-4.3,14.866a2.347,2.347,0,1,1,2.347-2.347,2.35,2.35,0,0,1-2.347,2.347" transform="translate(-16.794 -5)" fill="#fff"/>
    <path id="Path_349" data-name="Path 349" d="M52.349,38.393a4.689,4.689,0,0,0-4.5-8.081v-3.4L44.717,5H43.543V20.3a1.956,1.956,0,0,1,0,3.833v2.778h1.174v8.02l.011-.008a4.688,4.688,0,0,0,4.6,4.5c.2.579.45,1.262.494,1.356a4.684,4.684,0,0,0,1.554,2.1c1.652,1.042,3.6-.888,1.951-2.34,0,0-1.07-.328-.975-2.144M49.411,37.08a2.347,2.347,0,1,1,2.347-2.347,2.35,2.35,0,0,1-2.347,2.347" transform="translate(-32.198 -5)" fill="#fff"/>
  </g>
</svg>
