<svg xmlns="http://www.w3.org/2000/svg" width="36.071" height="36.643" viewBox="0 0 36.071 36.643">
  <g id="noun_shampoo_2628724" transform="translate(-4 -4)">
    <circle id="Ellipse_339" data-name="Ellipse 339" cx="2.617" cy="2.617" r="2.617" transform="translate(4 23.63)" fill="#fff"/>
    <path id="Path_3015" data-name="Path 3015" d="M6.365,49.265A3.619,3.619,0,0,0,5.1,51.424H23.291a3.628,3.628,0,0,0-4.286-2.912l-3.84.768a4.961,4.961,0,0,1-1.939,0l-3.841-.768A3.627,3.627,0,0,0,6.365,49.265Z" transform="translate(-0.38 -15.361)" fill="#fff"/>
    <path id="Path_3016" data-name="Path 3016" d="M41.889,5.309V6.617H39.926V7.926h5.235V4.654A.655.655,0,0,0,44.506,4H36.654A.655.655,0,0,0,36,4.654v.654h5.889Z" transform="translate(-11.061)" fill="#fff"/>
    <path id="Path_3017" data-name="Path 3017" d="M20.73,32.124H26.5l-.009-.621a32.639,32.639,0,0,1,1.321-9.682,4.579,4.579,0,0,0-7,5.088c-.066,0-.13-.02-.2-.02a2.617,2.617,0,0,0-2.6,2.875A2.693,2.693,0,0,0,20.73,32.124Z" transform="translate(-4.839 -5.876)" fill="#fff"/>
    <circle id="Ellipse_340" data-name="Ellipse 340" cx="1.963" cy="1.963" r="1.963" transform="translate(7.926 14.469)" fill="#fff"/>
    <circle id="Ellipse_341" data-name="Ellipse 341" cx="1.963" cy="1.963" r="1.963" transform="translate(6.617 7.272)" fill="#fff"/>
    <path id="Path_3018" data-name="Path 3018" d="M47.954,18.24A7.729,7.729,0,0,0,44.588,16a1.959,1.959,0,0,1-1.343-1.857V11H40.627v3.14A1.961,1.961,0,0,1,39.283,16a7.691,7.691,0,0,0-5.041,5.472H49.628A7.747,7.747,0,0,0,47.954,18.24Z" transform="translate(-10.453 -2.42)" fill="#fff"/>
    <path id="Path_3019" data-name="Path 3019" d="M43.58,42.173a4.58,4.58,0,0,0,.9-9.07,3.531,3.531,0,0,1-1.919,3.766L41.979,35.7a2.272,2.272,0,0,0,1.162-2.664,4.58,4.58,0,0,0,.44,9.139Zm2.29-3.926c.181,0,.327.293.327.654s-.147.654-.327.654-.327-.293-.327-.654S45.69,38.246,45.871,38.246Zm-4.58,0c.181,0,.327.293.327.654s-.147.654-.327.654-.327-.293-.327-.654S41.11,38.246,41.29,38.246Z" transform="translate(-12.098 -10.036)" fill="#fff"/>
    <path id="Path_3020" data-name="Path 3020" d="M40.041,45.571l-.118-.866H26.248V43.4h13.5l-.4-2.931a36.459,36.459,0,0,1,0-9.843c0-.007,0-.013,0-.018a7.789,7.789,0,0,0,.046-1.6H23.571a7.7,7.7,0,0,0,.046,1.6c0,.007,0,.012,0,.018a36.459,36.459,0,0,1,0,9.843l-.7,5.106a3.242,3.242,0,0,0-.026.442H4v3.272H23.63V48.075c.024.029.044.06.069.089a3.274,3.274,0,0,0,2.466,1.12H36.8a3.271,3.271,0,0,0,3.242-3.714ZM25.593,36.2a5.889,5.889,0,1,1,5.889,5.889A5.9,5.9,0,0,1,25.593,36.2Z" transform="translate(0 -8.641)" fill="#fff"/>
  </g>
</svg>
