<svg xmlns="http://www.w3.org/2000/svg" width="25.626" height="22.247" viewBox="0 0 25.626 22.247">
  <g id="ic_share" transform="translate(-7 -14.291)">
    <g id="Group_521" data-name="Group 521" transform="translate(7 16.291)">
      <path id="Path_372" data-name="Path 372" d="M29.874,31.517a1.049,1.049,0,0,0-1.049,1.049v5.007a.286.286,0,0,1-.286.286H9.384a.286.286,0,0,1-.286-.286V20.557a.286.286,0,0,1,.286-.286H19.666a1.049,1.049,0,0,0,0-2.1H9.384A2.387,2.387,0,0,0,7,20.557V37.573a2.386,2.386,0,0,0,2.384,2.384H28.539a2.386,2.386,0,0,0,2.384-2.384V32.566A1.049,1.049,0,0,0,29.874,31.517Z" transform="translate(-7 -19.71)" fill="#e4b343"/>
      <path id="Path_373" data-name="Path 373" d="M49.861,22.2l-6.117-5.786a.45.45,0,0,0-.759.327v3.414c-9.9.285-11.159,9.97-11.171,10.069a.45.45,0,0,0,.837.275,10.893,10.893,0,0,1,9.659-5.485c.247,0,.456.008.619.018v3.447a.449.449,0,0,0,.762.324l6.172-5.952a.45.45,0,0,0,0-.65Z" transform="translate(-24.375 -18.291)" fill="#e4b343"/>
    </g>
  </g>
</svg>
