<svg xmlns="http://www.w3.org/2000/svg" width="34.45" height="41.228" viewBox="0 0 34.45 41.228">
  <g id="noun_Razor_Blade_1260924" data-name="noun_Razor Blade_1260924" transform="translate(-10.06 -16)">
    <g id="Group_4605" data-name="Group 4605" transform="translate(11.07 17)">
      <path id="Path_2972" data-name="Path 2972" d="M54.594,35.244V46.269a27.81,27.81,0,0,1-3.675,2.625,3.067,3.067,0,0,0-.919.919V21.331c0-5.775,8.794-5.775,8.794,0V32.75Z" transform="translate(-49.107 -17)" fill="none" stroke="#fff" stroke-width="2" fill-rule="evenodd"/>
      <path id="Path_2973" data-name="Path 2973" d="M68.5,67.162a4.12,4.12,0,0,1,5.644-.656,3.945,3.945,0,0,1,.656,5.513c0,.131-14.831,19.163-25.594,25.857a3.854,3.854,0,0,1-5.381-1.181,4.009,4.009,0,0,1,1.181-5.513C54.588,85.144,68.5,67.293,68.5,67.162Z" transform="translate(-43.194 -59.287)" fill="none" stroke="#fff" stroke-width="2"/>
      <circle id="Ellipse_335" data-name="Ellipse 335" cx="0.919" cy="0.919" r="0.919" transform="translate(26.881 10.5)" fill="#fff" stroke="#fff" stroke-width="1"/>
      <circle id="Ellipse_336" data-name="Ellipse 336" cx="0.919" cy="0.919" r="0.919" transform="translate(3.518 33.863)" fill="#fff" stroke="#fff" stroke-width="1"/>
    </g>
  </g>
</svg>
