<svg xmlns="http://www.w3.org/2000/svg" width="28.53" height="41.555" viewBox="0 0 28.53 41.555">
  <g id="Group_4608" data-name="Group 4608" transform="translate(-18.03 -8)">
    <path id="Path_2987" data-name="Path 2987" d="M44.518,26.382c3.006-5.87,2.675-11.928-.87-15.466-2.915-2.915-7.61-3.7-12.564-2.1a22.256,22.256,0,0,0-8.72,5.474c-2.643,2.643-4.091,6.655-4.3,11.928a37.476,37.476,0,0,0,.76,9.038.624.624,0,0,0,.071.182,13.531,13.531,0,0,0-.143,1.863c0,5.2,6.487,9.538,10.35,11.655a4.758,4.758,0,0,0,4.617,0c3.863-2.117,10.35-6.454,10.35-11.655a13.154,13.154,0,0,0-.227-2.409A38.766,38.766,0,0,0,44.518,26.382ZM33.09,47.822a3.492,3.492,0,0,1-3.37,0C26.811,46.224,20.046,42,20.046,37.3a11.494,11.494,0,0,1,2.026-6.532c1.838-2.669,8.22-4.584,9.337-4.9,1.1.312,7.383,2.162,9.233,4.766a10.981,10.981,0,0,1,.643,1.006c.058.11.11.221.162.331.13.24.26.487.37.734.058.143.1.286.162.429.084.227.182.454.253.695.045.136.071.279.11.422.071.247.143.493.195.747V35a12.046,12.046,0,0,1,.227,2.3C42.765,42,36,46.224,33.09,47.822Z" fill="#fff"/>
    <path id="Path_2988" data-name="Path 2988" d="M33.093,47.642a.649.649,0,0,0-1.3,0c0,.529-1.265,1.3-3.247,1.3s-3.247-.769-3.247-1.3a.649.649,0,0,0-1.3,0c0,1.481,1.954,2.6,4.545,2.6S33.093,49.123,33.093,47.642Z" transform="translate(-2.095 -13.675)" fill="#fff"/>
    <path id="Path_2989" data-name="Path 2989" d="M48.444,46.993a.649.649,0,0,0-.649.649c0,.529-1.265,1.3-3.247,1.3s-3.247-.769-3.247-1.3a.649.649,0,0,0-1.3,0c0,1.481,1.954,2.6,4.545,2.6s4.545-1.117,4.545-2.6A.649.649,0,0,0,48.444,46.993Z" transform="translate(-7.706 -13.675)" fill="#fff"/>
    <path id="Path_2990" data-name="Path 2990" d="M31.738,57.484h8.944c-.58-.768-2.311-2.794-4.472-2.794S32.319,56.716,31.738,57.484Z" transform="translate(-4.807 -16.374)" fill="#fff"/>
    <path id="Path_2991" data-name="Path 2991" d="M36.208,63.789c2.163,0,3.895-2.03,4.473-2.8H31.735C32.316,61.76,34.05,63.789,36.208,63.789Z" transform="translate(-4.806 -18.584)" fill="#fff"/>
  </g>
</svg>
