<svg xmlns="http://www.w3.org/2000/svg" width="36.332" height="39.336" viewBox="0 0 36.332 39.336">
  <g id="noun_hair_147163" transform="translate(-7.281 -1.685)">
    <g id="Group_4573" data-name="Group 4573" transform="translate(7.281 1.685)">
      <g id="Group_4572" data-name="Group 4572">
        <path id="Path_2906" data-name="Path 2906" d="M42.9,35.337c-5.31,1.282-9.018-1.007-9.659-6.363A51.215,51.215,0,0,1,33.29,20.6c.137-2.563,1.053-5.035.549-7.69A13.049,13.049,0,0,0,24.318,2.241a27.32,27.32,0,0,0-3.3-.5A11.6,11.6,0,0,0,9.075,8.467a18.839,18.839,0,0,0-1.282,12.36c.6,2.518,1.6,4.9,2.335,7.37,1.144,3.891,1.968,7.782-.5,11.536-.046.046,0,.137.046.275a6.328,6.328,0,0,0,4.12-1.648,10.013,10.013,0,0,0,3.159-5.951,6.565,6.565,0,0,0-1.236-5.63c-.778-1.007-1.373-2.2-2.06-3.3A6.97,6.97,0,0,1,12.6,19.224a5.9,5.9,0,0,1,.229-1.1,39.9,39.9,0,0,0,1.465-4.99c.137-2.747,1.968-3.937,4.3-2.655,3.3,1.831,6.454,3.891,9.567,6a3.7,3.7,0,0,1,1.694,3.662,35.3,35.3,0,0,1-.5,3.845c-.549,2.2-1.419,4.211-3.8,5.127a1.039,1.039,0,0,0-.412.824,17.137,17.137,0,0,0,1.831,7.05c1.739,3.342,4.578,4.669,8.24,3.754a21.01,21.01,0,0,0,8.194-4.44.555.555,0,0,0-.5-.961Z" transform="translate(-7.281 -1.685)" fill="#fff"/>
      </g>
    </g>
  </g>
</svg>
