<svg xmlns="http://www.w3.org/2000/svg" width="25.656" height="26.47" viewBox="0 0 25.656 26.47">
  <g id="ic_website" transform="translate(-2.601 -1.85)">
    <path id="Path_374" data-name="Path 374" d="M15.429,2A13.11,13.11,0,0,0,2.8,11.672H3.984a11.947,11.947,0,0,1,2-3.878,15.284,15.284,0,0,0,3.34,1.356,21.194,21.194,0,0,0-.5,2.522h1.16a20.77,20.77,0,0,1,.46-2.24,22.81,22.81,0,0,0,4.411.516v1.725H16V9.947a22.637,22.637,0,0,0,4.411-.516,20.771,20.771,0,0,1,.46,2.24h1.16a21.194,21.194,0,0,0-.5-2.522,15.284,15.284,0,0,0,3.34-1.356,11.9,11.9,0,0,1,2,3.878H28.06A13.11,13.11,0,0,0,15.429,2ZM14.86,3.207v5.6a21.643,21.643,0,0,1-4.089-.476C11.706,5.536,13.189,3.576,14.86,3.207Zm1.138,0c1.671.369,3.153,2.329,4.089,5.127A21.643,21.643,0,0,1,16,8.809Zm-3.907.416A11.762,11.762,0,0,0,9.646,8.054,14.511,14.511,0,0,1,6.737,6.907,11.971,11.971,0,0,1,12.091,3.622Zm6.676,0A11.971,11.971,0,0,1,24.12,6.907a14.511,14.511,0,0,1-2.909,1.147A11.762,11.762,0,0,0,18.767,3.622ZM2.912,12.809l1.445,4.551H5.681l1.2-3.4,1.2,3.4h1.3l1.471-4.551H9.626L8.7,15.99l-1.062-3.18H6.184L5.077,15.936l-.913-3.127Zm8.543,0L12.9,17.361h1.327l1.2-3.4,1.207,3.4h1.3L19.4,12.809H18.169l-.927,3.18-1.062-3.18H14.726L13.62,15.936l-.911-3.127Zm8.516,0,1.449,4.551h1.331l1.207-3.4,1.211,3.4h1.3l1.476-4.551H26.709l-.933,3.18-1.064-3.18H23.253l-1.111,3.127-.918-3.127ZM2.8,18.5a13.085,13.085,0,0,0,25.264,0H26.871a11.9,11.9,0,0,1-2,3.878,15.284,15.284,0,0,0-3.34-1.356,21.194,21.194,0,0,0,.5-2.522h-1.16a20.77,20.77,0,0,1-.46,2.24A22.81,22.81,0,0,0,16,20.223V18.5H14.86v1.725a22.638,22.638,0,0,0-4.411.516,20.77,20.77,0,0,1-.46-2.24H8.828a21.194,21.194,0,0,0,.5,2.522,15.283,15.283,0,0,0-3.34,1.356,11.947,11.947,0,0,1-2-3.878ZM14.86,21.361v5.6c-1.671-.369-3.153-2.329-4.089-5.127A21.643,21.643,0,0,1,14.86,21.361Zm1.138,0a21.643,21.643,0,0,1,4.089.476c-.936,2.8-2.418,4.758-4.089,5.127Zm-6.349.756a11.732,11.732,0,0,0,2.442,4.429,11.947,11.947,0,0,1-5.354-3.282A14.35,14.35,0,0,1,9.648,22.117Zm11.563,0a14.511,14.511,0,0,1,2.909,1.147,11.947,11.947,0,0,1-5.354,3.282A11.734,11.734,0,0,0,21.211,22.117Z" transform="translate(0 0)" fill="#e4b343" stroke="#e4b343" stroke-width="0.3"/>
  </g>
</svg>
